<?xml version="1.0" standalone="no"?>
<!DOCTYPE svg PUBLIC "-//W3C//DTD SVG 20010904//EN"
 "http://www.w3.org/TR/2001/REC-SVG-20010904/DTD/svg10.dtd">
<svg version="1.0" xmlns="http://www.w3.org/2000/svg"
 width="834.000000pt" height="1242.000000pt" viewBox="0 0 834.000000 1242.000000"
 preserveAspectRatio="xMidYMid meet">

<g transform="translate(0.000000,1242.000000) scale(0.100000,-0.100000)"
fill="#000000" stroke="none">
<path d="M7820 12406 c-169 -36 -323 -131 -417 -259 -102 -139 -222 -435 -298
-731 -46 -184 -88 -304 -215 -626 -45 -113 -101 -257 -125 -320 -54 -143 -98
-243 -215 -485 -158 -327 -163 -338 -332 -825 -156 -451 -251 -667 -316 -720
-76 -61 -217 -160 -229 -160 -12 0 -21 29 -41 130 -38 201 -231 573 -375 723
-84 87 -124 101 -282 100 -192 -1 -455 -46 -610 -104 -116 -43 -278 -232 -347
-406 -56 -138 -94 -170 -116 -95 -19 61 -128 181 -209 230 -112 66 -177 73
-338 37 -33 -8 -103 -19 -155 -25 -114 -13 -181 -42 -295 -127 -96 -71 -159
-139 -221 -240 -62 -98 -98 -207 -129 -387 -25 -147 -43 -207 -64 -220 -18
-12 -91 56 -197 181 -54 65 -122 143 -150 173 -51 54 -90 122 -153 268 -134
307 -247 509 -333 596 -95 96 -113 133 -178 375 -81 300 -272 697 -450 941
-86 117 -231 264 -302 308 -84 50 -163 75 -259 80 -230 12 -407 -122 -454
-344 -45 -213 21 -558 168 -879 32 -71 77 -179 99 -240 21 -60 69 -163 105
-229 36 -65 76 -146 88 -180 12 -33 70 -160 130 -281 151 -309 435 -893 516
-1062 45 -94 88 -209 129 -340 111 -354 218 -686 254 -788 85 -238 121 -415
138 -689 12 -192 1 -532 -27 -846 -8 -85 -19 -267 -26 -403 -15 -292 -3 -517
36 -717 31 -157 48 -324 42 -421 -2 -41 -16 -130 -31 -199 -25 -112 -27 -138
-22 -250 6 -141 25 -265 61 -390 42 -150 68 -196 167 -297 50 -51 108 -104
128 -118 l37 -26 -10 -48 -9 -49 55 -69 c30 -37 64 -77 76 -87 39 -35 105 -44
251 -35 186 11 354 11 384 -1 19 -7 26 -19 31 -47 16 -99 58 -203 127 -309 71
-111 118 -198 118 -222 0 -8 -24 -37 -54 -65 -90 -87 -86 -148 20 -287 28 -36
83 -112 123 -170 87 -124 142 -184 231 -250 186 -138 413 -230 875 -355 116
-32 232 -67 259 -79 l50 -22 61 33 c73 39 181 69 420 118 297 61 527 150 750
290 115 72 156 112 199 195 84 159 116 348 126 740 l7 285 32 90 c17 50 41
108 54 130 66 116 187 132 644 84 88 -9 107 -8 134 5 18 9 40 16 50 16 10 0
19 9 21 22 2 14 13 24 32 29 61 17 119 95 162 220 61 179 130 558 128 709 -2
139 -29 310 -61 383 -23 52 -25 65 -20 140 7 86 24 153 105 407 64 203 66 210
48 210 -9 0 -15 17 -19 53 -3 28 -11 86 -16 127 -6 41 -10 104 -11 140 0 37
-6 77 -15 94 -9 18 -15 57 -15 105 0 94 -16 344 -30 471 -18 155 -57 368 -121
655 -82 370 -100 485 -106 707 -10 331 35 614 167 1053 62 205 166 668 209
932 13 75 44 194 80 305 63 195 84 282 101 418 24 188 102 453 233 795 80 209
89 242 122 430 42 239 64 333 107 445 174 458 254 878 219 1145 -22 163 -72
263 -170 335 -89 67 -218 91 -341 66z m235 -77 c113 -42 185 -126 185 -215 0
-41 -3 -45 -40 -64 -32 -16 -41 -28 -50 -63 -6 -23 -15 -55 -20 -71 -6 -16
-10 -40 -10 -53 0 -21 4 -24 28 -21 l27 3 -2 -110 c-1 -82 -7 -127 -23 -175
-12 -36 -24 -87 -27 -115 -3 -27 -13 -59 -23 -70 -21 -24 -51 -81 -84 -157
-14 -32 -31 -58 -38 -58 -7 0 -47 -33 -88 -72 -78 -75 -80 -95 -6 -64 20 8 36
11 36 7 0 -5 -18 -29 -41 -54 -39 -45 -44 -67 -13 -67 18 0 18 -16 -1 -32 -38
-31 -45 -40 -45 -54 0 -8 7 -17 15 -20 21 -9 19 -38 -5 -59 -11 -10 -27 -41
-35 -69 -9 -28 -29 -71 -45 -95 -16 -24 -41 -80 -54 -125 -14 -44 -38 -120
-55 -169 -16 -48 -27 -96 -24 -106 2 -10 -9 -59 -26 -109 -33 -100 -61 -211
-61 -245 0 -12 -12 -46 -27 -75 -22 -44 -25 -56 -15 -70 36 -49 52 -100 52
-165 0 -59 -5 -77 -36 -137 -33 -63 -54 -81 -54 -46 0 15 -28 42 -35 34 -3 -3
-16 -70 -30 -149 -28 -159 -70 -294 -115 -368 -17 -26 -30 -59 -30 -71 0 -13
-27 -71 -59 -129 -62 -110 -95 -180 -88 -187 11 -11 37 13 91 81 98 125 111
87 29 -85 -54 -115 -84 -156 -129 -178 -21 -10 -44 -33 -59 -60 -34 -61 -32
-72 10 -72 45 0 57 -23 57 -109 1 -109 -38 -197 -88 -203 -23 -3 -27 -8 -28
-45 -1 -26 -12 -57 -29 -82 -26 -39 -36 -45 -64 -42 -7 1 -15 -11 -19 -26 -11
-46 -23 -56 -50 -39 -21 14 -24 13 -56 -22 -18 -20 -44 -65 -56 -99 -14 -38
-34 -72 -53 -87 -39 -34 -49 -33 -49 4 0 52 -40 32 -68 -33 -24 -56 -62 -44
-62 20 0 17 -3 38 -6 47 -5 14 -8 14 -29 0 -22 -14 -25 -14 -38 8 -8 13 -20
40 -27 60 -6 21 -15 40 -20 43 -14 8 -40 -24 -40 -49 0 -13 -6 -29 -14 -35 -8
-7 -14 -29 -14 -54 1 -23 -5 -53 -12 -67 -12 -23 -13 -23 -27 -4 -30 41 -37
90 -19 133 23 59 21 73 -9 65 -21 -5 -25 -3 -25 15 0 12 7 36 16 52 12 24 13
34 3 45 -6 8 -15 14 -19 14 -15 0 -30 -56 -34 -128 -2 -41 -7 -76 -9 -79 -10
-10 -27 8 -42 44 -8 19 -24 37 -35 40 -26 7 -26 46 0 113 25 64 25 87 0 100
-11 6 -23 22 -26 36 -8 29 -40 30 -58 1 -9 -14 -7 -21 7 -31 12 -9 17 -27 17
-60 0 -59 -16 -57 -41 4 -22 56 -24 109 -4 116 12 5 15 26 15 98 0 71 4 100
20 130 14 29 17 43 9 58 -16 30 -13 91 6 129 27 51 116 182 134 196 31 23 63
25 85 4 11 -11 33 -23 48 -26 39 -10 45 13 24 101 -17 69 -17 78 -1 141 9 38
22 97 28 133 11 61 14 65 39 65 36 0 43 9 40 53 -3 46 20 138 52 200 13 26 26
61 29 77 30 157 27 148 48 129 17 -16 22 -16 30 -4 5 8 6 34 3 57 l-6 43 28
-14 c15 -8 34 -28 41 -43 12 -26 13 -25 8 24 -5 48 -4 51 15 46 18 -5 20 -1
20 40 0 68 21 149 37 143 9 -4 13 5 13 32 0 20 10 66 21 102 17 53 19 79 14
143 -7 76 -7 77 16 77 13 0 42 -12 64 -25 46 -29 95 -33 95 -9 0 9 -26 43 -59
77 -73 78 -91 112 -91 179 0 40 8 71 35 125 19 40 42 103 51 140 42 185 174
523 224 573 20 20 20 20 85 -25 63 -43 113 -61 152 -53 31 6 20 30 -21 45 -22
7 -47 19 -55 27 -9 8 -32 21 -51 29 -76 34 -74 27 -50 189 28 190 61 311 104
385 20 34 50 105 67 159 17 55 63 164 102 243 58 119 81 155 131 206 128 130
326 176 491 114z m-7453 -1594 c96 -33 199 -105 262 -184 174 -217 406 -623
464 -811 35 -116 82 -347 82 -406 0 -32 -10 -88 -22 -125 -23 -72 -20 -99 12
-99 11 0 29 -9 39 -19 28 -28 56 -41 89 -41 47 0 120 -86 288 -339 24 -35 63
-113 88 -175 25 -61 56 -138 70 -171 15 -36 26 -80 26 -109 0 -49 0 -50 -92
-138 -100 -96 -94 -110 16 -37 76 50 99 50 146 -1 38 -41 165 -300 240 -489
44 -110 100 -275 100 -293 0 -6 10 -30 22 -54 20 -41 20 -45 5 -62 -32 -35 -9
-60 39 -42 46 18 63 12 79 -26 l15 -36 19 23 20 24 21 -50 c51 -121 66 -149
99 -183 l34 -37 -66 -6 c-63 -5 -107 -24 -90 -39 4 -4 40 -17 80 -29 74 -22
133 -61 133 -88 0 -11 -8 -14 -30 -11 -25 4 -30 1 -30 -16 0 -12 11 -39 25
-61 13 -22 25 -48 25 -58 0 -17 -6 -18 -56 -11 l-57 7 7 -29 c13 -48 10 -64
-8 -64 -27 0 -46 -29 -40 -59 5 -24 2 -32 -17 -41 -35 -18 -35 -18 -9 -45 22
-24 23 -26 6 -44 -17 -19 -16 -20 23 -47 23 -14 41 -30 41 -34 0 -15 -13 -19
-31 -9 -14 7 -23 5 -36 -11 -10 -11 -30 -20 -45 -20 -15 0 -42 -9 -60 -20 -37
-22 -73 -26 -84 -8 -5 7 -12 -1 -19 -23 -13 -36 -29 -41 -88 -26 -22 6 -33 2
-53 -18 -38 -38 -62 -51 -149 -80 l-80 -27 -26 31 c-20 24 -34 31 -61 31 -34
0 -36 2 -57 60 -12 33 -33 73 -46 88 -35 42 -59 102 -88 227 -41 174 -42 221
-12 360 14 65 31 125 37 133 6 7 35 29 63 48 39 25 61 50 84 93 41 77 84 114
122 106 24 -6 29 -3 35 19 3 15 27 41 54 61 56 41 65 58 43 81 -16 16 -18 15
-33 -7 -35 -53 -61 -76 -100 -88 -54 -16 -64 -8 -56 45 3 24 2 44 -4 44 -5 0
-39 -25 -77 -55 -37 -30 -71 -55 -75 -55 -15 0 -8 51 7 56 21 9 19 24 -4 24
-29 0 -83 50 -78 71 3 10 -5 27 -19 40 -13 12 -24 30 -24 40 0 10 -11 31 -25
48 -19 21 -24 36 -20 54 8 31 -16 70 -60 97 -35 22 -55 26 -55 10 0 -5 7 -10
15 -10 23 0 18 -17 -7 -24 -22 -5 -20 -8 25 -49 26 -24 47 -53 47 -64 0 -11 9
-28 21 -39 11 -10 18 -26 16 -35 -3 -9 4 -30 14 -46 25 -38 24 -43 -11 -43
-55 0 -136 109 -160 217 -6 26 -25 75 -41 108 -25 50 -27 61 -14 63 8 2 31 -6
50 -18 39 -24 41 -22 20 35 -20 56 -20 59 26 111 33 38 39 52 34 73 -11 46
-27 55 -70 37 -64 -27 -69 -24 -126 79 -51 92 -150 205 -180 205 -8 0 -7 -6 4
-17 8 -10 19 -31 23 -48 4 -16 20 -45 36 -64 34 -39 54 -78 45 -88 -15 -14
-59 19 -91 69 -18 29 -53 71 -76 92 -23 21 -48 54 -56 71 -7 18 -30 47 -51 64
-34 28 -36 33 -25 51 11 18 9 23 -15 44 -26 23 -26 24 -11 57 16 32 15 40 -12
149 -16 63 -31 125 -35 138 -5 16 0 33 20 61 31 45 28 56 -29 110 -27 26 -36
43 -36 67 0 44 -38 82 -55 54 -12 -20 -54 -9 -111 29 -59 40 -267 245 -315
311 -112 154 -249 457 -249 551 0 30 13 38 26 17 10 -16 22 16 24 62 1 32 6
25 57 -75 59 -117 78 -145 100 -145 21 0 16 18 -37 124 -29 59 -56 132 -65
176 -22 107 -43 166 -71 199 -13 16 -31 46 -40 66 l-15 38 -33 -33 -34 -32
-16 89 c-21 116 -20 138 8 199 16 35 39 62 74 87 131 97 265 117 424 62z
m7216 -506 c2 -18 8 -37 14 -40 16 -10 0 -42 -17 -35 -12 4 -15 -3 -15 -34 0
-30 -10 -56 -42 -105 -24 -35 -47 -65 -52 -65 -11 0 2 67 21 103 8 16 21 60
29 98 24 116 55 155 62 78z m-2732 -1069 c66 -23 133 -75 179 -139 89 -121
199 -379 200 -466 0 -37 5 -54 19 -66 13 -11 21 -33 24 -75 4 -53 3 -57 -11
-46 -23 19 -37 -13 -37 -85 0 -35 -6 -67 -14 -78 -15 -21 -10 -34 -61 150 -30
108 -56 46 -30 -70 13 -58 14 -83 6 -106 -13 -37 -3 -148 14 -169 18 -21 26
-76 32 -219 3 -79 1 -127 -6 -134 -15 -15 -78 58 -99 115 -13 38 -19 45 -33
37 -36 -19 -67 67 -76 214 -10 154 -23 91 -21 -92 3 -178 -2 -196 -46 -168
-14 9 -35 39 -48 67 -20 44 -26 50 -46 45 -13 -3 -31 0 -39 6 -12 10 -16 10
-24 -2 -5 -8 -9 -22 -9 -31 0 -29 -15 -21 -46 25 -48 72 -65 88 -81 75 -11 -9
-20 -4 -45 26 -17 21 -41 41 -53 46 -31 12 -54 66 -65 157 -6 42 -13 85 -16
95 -12 37 -23 15 -26 -49 -3 -64 -4 -68 -28 -71 -14 -1 -39 6 -57 17 -39 25
-53 68 -53 174 0 83 -14 103 -24 35 -4 -24 -11 -50 -16 -58 -20 -31 -30 15
-30 144 0 71 -2 127 -5 124 -3 -3 -12 -32 -21 -64 -8 -32 -23 -67 -33 -77 -18
-18 -19 -16 -31 65 -8 49 -21 93 -31 107 -11 13 -19 40 -19 60 0 20 -5 43 -10
51 -7 11 -10 6 -10 -22 0 -45 -8 -68 -25 -68 -14 0 -25 71 -25 161 0 102 87
238 178 277 27 12 129 35 228 52 98 17 197 35 219 40 77 15 192 11 251 -10z
m2249 -370 c-17 -50 -58 -110 -76 -110 -13 0 -11 47 3 73 20 39 82 110 86 98
2 -6 -4 -34 -13 -61z m-3748 28 c119 -29 342 -330 265 -356 -7 -2 -23 19 -39
55 -26 58 -26 58 -34 28 -7 -23 -4 -34 11 -50 38 -41 51 -115 30 -171 -10 -24
-74 -105 -90 -112 -3 -1 -14 11 -23 28 -24 40 -38 30 -31 -23 5 -39 2 -46 -51
-112 -32 -38 -63 -82 -71 -98 -19 -35 -34 -27 -74 36 -16 26 -34 47 -40 47 -5
0 -10 -2 -10 -4 0 -14 36 -85 52 -103 23 -25 21 -68 -4 -68 -25 0 -31 -11 -18
-34 9 -17 5 -42 -16 -122 -25 -92 -26 -107 -16 -158 6 -31 18 -119 26 -196 19
-178 53 -310 110 -431 64 -134 121 -210 267 -354 98 -97 135 -141 163 -195 21
-38 53 -95 72 -125 l35 -55 -5 -110 c-5 -86 -3 -104 5 -82 7 19 16 26 26 23
12 -5 14 1 8 34 -4 22 -5 40 -2 40 2 0 31 -36 65 -79 34 -44 81 -95 105 -115
37 -30 48 -35 78 -30 33 6 37 4 49 -26 13 -30 12 -34 -9 -51 -12 -10 -47 -23
-79 -29 -82 -15 -135 -45 -160 -88 -45 -82 -72 -247 -52 -322 22 -83 -13 -60
-64 40 -31 62 -35 80 -41 187 -8 134 -17 165 -35 118 l-12 -30 -14 25 c-35 63
-46 126 -34 208 10 78 7 112 -11 112 -5 0 -13 -10 -18 -22 -10 -27 -15 -18
-35 62 -19 73 -30 90 -48 72 -9 -9 -9 -21 0 -50 15 -51 15 -62 -2 -62 -20 0
-62 52 -75 93 -7 19 -22 39 -35 45 -14 6 -27 23 -31 41 -7 35 -32 49 -37 20
-3 -17 -8 -15 -45 20 -47 42 -54 74 -27 115 15 23 14 24 -16 31 -17 4 -43 20
-57 36 -17 19 -36 29 -54 29 -15 0 -34 7 -43 15 -20 21 -78 143 -74 156 2 5
21 -6 43 -26 44 -38 55 -43 55 -20 0 21 -77 167 -139 263 -42 65 -57 81 -72
77 -23 -8 -55 41 -94 144 -15 40 -40 87 -55 105 -36 42 -46 61 -59 125 -10 45
-9 58 4 77 25 38 19 54 -20 54 -33 0 -34 1 -55 68 -46 150 -130 509 -130 554
0 50 -3 55 -23 38 -7 -6 -21 -17 -31 -24 -15 -10 -20 -30 -25 -89 -6 -70 -21
-110 -37 -94 -3 3 -7 73 -7 154 -1 174 11 233 77 368 78 159 210 278 362 325
38 11 116 25 174 31 58 5 128 14 155 18 72 12 91 12 142 -1z m331 -475 c-4
-21 -31 -38 -51 -30 -13 5 -13 11 5 47 20 40 21 40 35 20 8 -11 13 -28 11 -37z
m-2843 -175 c27 -51 66 -113 87 -137 59 -68 46 -85 -15 -19 -48 52 -135 199
-152 258 -15 51 30 -6 80 -102z m2961 27 c30 -12 35 -19 32 -42 -2 -22 -20
-39 -81 -81 -86 -60 -107 -87 -169 -225 -38 -83 -42 -100 -43 -172 0 -73 3
-86 34 -143 41 -75 130 -169 266 -278 120 -96 172 -132 245 -169 53 -27 56
-27 123 -15 86 15 182 63 272 135 39 31 77 61 87 66 10 5 14 16 11 29 -3 10 2
26 11 35 8 9 13 22 10 30 -3 7 -1 23 6 34 9 18 20 21 76 21 64 0 65 0 53 23
-7 12 -25 37 -40 55 -28 32 -39 82 -19 82 5 0 42 -21 82 -46 104 -67 191 -92
175 -51 -23 62 -24 60 34 54 30 -3 101 -22 159 -42 58 -20 150 -50 205 -66
135 -40 251 -99 308 -156 73 -72 77 -113 29 -253 -34 -98 -58 -135 -119 -180
-107 -79 -170 -150 -133 -150 6 0 21 -12 33 -26 l22 -26 59 46 c33 25 65 46
71 46 17 0 110 211 134 304 11 43 24 83 30 89 6 6 20 -3 42 -27 100 -114 101
-127 20 -292 -53 -106 -74 -138 -140 -207 -92 -97 -118 -137 -88 -137 46 0
131 103 249 298 44 73 87 136 96 139 9 4 23 -3 34 -17 38 -47 13 -102 -117
-265 -149 -188 -165 -209 -165 -222 0 -22 35 -14 75 17 21 16 67 67 104 112
36 45 87 105 114 132 42 45 49 49 60 35 9 -13 16 -14 30 -5 23 14 51 -20 72
-89 14 -46 14 -51 -1 -62 -15 -11 -15 -16 1 -68 13 -41 22 -55 34 -53 16 4 17
18 7 71 -7 33 11 36 24 3 4 -13 19 -32 33 -42 41 -33 50 -59 32 -93 -8 -17
-15 -37 -15 -46 0 -17 16 -20 25 -5 12 19 22 1 29 -51 4 -29 14 -68 23 -88 8
-20 19 -69 24 -109 11 -98 34 -137 79 -137 l34 0 11 -80 c12 -84 17 -95 71
-185 18 -30 49 -95 70 -145 33 -82 35 -92 24 -124 -12 -32 -11 -36 9 -51 62
-43 75 -60 108 -145 31 -78 36 -103 39 -190 1 -55 8 -113 13 -128 6 -16 11
-61 11 -100 0 -46 5 -80 14 -93 20 -28 39 -263 27 -336 -6 -31 -15 -67 -22
-79 l-12 -23 -15 30 c-11 21 -17 71 -20 184 -3 117 -8 161 -20 179 l-15 25 -8
-22 c-5 -12 -15 -22 -24 -22 -19 0 -19 -12 1 -152 19 -142 48 -257 80 -319 36
-72 32 -105 -18 -156 l-41 -42 -4 -128 c-5 -161 -7 -171 -38 -179 -27 -7 -34
-39 -15 -75 13 -24 1 -25 -40 -4 -29 15 -60 60 -60 88 0 8 9 43 20 78 27 82
17 110 -61 182 -32 31 -66 71 -74 91 -18 42 -34 52 -100 61 -101 14 -221 46
-269 73 -49 27 -50 28 -50 77 -1 60 -26 74 -46 26 -17 -43 -60 -49 -149 -22
-38 12 -84 21 -102 21 -59 0 -300 -81 -347 -117 -24 -18 -50 -33 -57 -33 -21
0 -35 31 -23 53 16 30 2 31 -45 4 -71 -42 -141 -111 -155 -153 -29 -81 -92
-200 -121 -228 l-31 -30 -28 27 c-42 40 -60 36 -64 -15 -2 -35 -7 -44 -25 -46
-18 -3 -24 4 -32 35 -6 21 -11 51 -11 66 0 37 -19 42 -90 27 -54 -11 -61 -11
-104 11 -25 12 -55 33 -67 45 -36 38 -67 10 -31 -29 14 -16 16 -34 14 -107 -4
-84 -3 -88 22 -107 28 -23 32 -43 16 -90 -9 -24 -6 -45 14 -109 16 -49 25
-101 25 -135 -2 -60 11 -133 29 -166 7 -12 12 -46 12 -75 0 -30 5 -59 10 -64
8 -8 7 -26 0 -59 -16 -70 1 -166 34 -187 20 -13 26 4 26 80 0 69 2 75 15 61 9
-8 21 -37 28 -64 7 -27 18 -51 26 -53 14 -5 13 33 -6 152 -4 27 -2 37 6 32 6
-4 11 -17 11 -30 0 -13 9 -31 20 -41 11 -10 22 -26 25 -36 4 -11 11 -19 17
-19 32 0 86 -35 104 -69 12 -23 26 -35 36 -33 11 2 23 -9 33 -28 19 -38 26
-38 49 0 13 23 23 29 37 25 22 -7 25 11 7 50 -11 25 -28 34 -28 14 0 -5 -4 -7
-10 -4 -5 3 -10 15 -10 27 0 19 5 20 51 16 55 -6 83 -23 60 -37 -9 -6 -11 -14
-4 -26 7 -12 13 -14 17 -6 11 17 24 13 31 -9 8 -24 28 -26 45 -5 19 23 54 17
185 -28 108 -38 121 -45 135 -74 15 -32 16 -32 28 -12 10 15 20 19 35 15 12
-3 73 -18 136 -32 114 -26 115 -26 205 -9 114 21 198 60 265 125 32 31 61 50
75 50 33 0 46 21 40 61 -4 22 3 61 20 111 14 43 28 93 32 112 8 48 29 64 52
42 25 -22 32 -20 32 9 0 15 -7 28 -17 32 -40 14 -42 22 -26 76 18 61 44 107
71 124 37 22 172 -84 172 -136 0 -16 -4 -21 -15 -17 -30 11 -14 -19 38 -70 81
-78 98 -123 107 -281 5 -73 11 -137 14 -141 3 -5 1 -85 -3 -178 -8 -172 -17
-208 -59 -257 -14 -16 -13 -19 7 -39 27 -24 54 -84 46 -98 -10 -16 -30 -12
-58 11 l-26 20 -29 -21 c-16 -12 -47 -24 -70 -27 -81 -11 -206 54 -256 132
-18 29 -40 48 -66 59 -41 16 -80 49 -80 66 0 29 97 -5 177 -62 41 -30 47 -31
56 -16 10 14 19 9 80 -43 37 -32 76 -59 86 -59 39 0 39 20 0 98 -21 42 -39 83
-39 89 0 7 27 42 60 79 61 67 74 94 68 135 -5 39 -23 31 -71 -31 -50 -63 -98
-100 -133 -100 -11 0 -63 -12 -115 -26 -103 -28 -387 -51 -419 -34 -22 12 -60
2 -60 -16 0 -16 60 -34 115 -34 53 0 115 -18 115 -33 0 -7 -31 -27 -68 -45
-81 -39 -139 -42 -268 -11 -51 12 -101 18 -120 15 -17 -4 -42 -2 -56 3 -29 11
-112 -6 -151 -32 -14 -9 -40 -17 -56 -17 -43 0 -61 -10 -72 -37 -8 -22 -13
-24 -53 -18 -41 7 -45 5 -69 -27 -14 -18 -31 -55 -39 -83 -12 -45 -18 -52 -63
-75 -67 -34 -74 -60 -52 -194 9 -55 22 -141 27 -189 6 -48 22 -118 36 -155 26
-68 37 -104 49 -156 4 -21 9 -26 17 -18 8 8 7 33 -2 90 -10 66 -10 85 2 108
16 34 43 43 51 17 3 -10 17 -51 31 -91 20 -57 26 -93 26 -157 0 -96 -5 -115
-30 -115 -19 0 -23 -8 -35 -68 -5 -24 -13 -33 -33 -38 -95 -21 -110 -28 -154
-72 l-48 -46 0 30 c0 32 -24 74 -35 62 -9 -9 -9 -42 1 -98 l7 -44 -29 18 c-16
11 -52 39 -80 63 -28 23 -55 43 -61 43 -5 0 -24 -31 -42 -70 -19 -38 -48 -87
-66 -107 -43 -49 -60 -40 -96 48 -28 69 -42 78 -86 56 -28 -15 -127 -114 -171
-171 -19 -25 -25 -28 -46 -18 -13 6 -60 45 -105 87 -48 45 -89 75 -99 73 -9
-2 -23 -17 -31 -33 -73 -145 -103 -143 -190 18 -44 79 -61 95 -61 53 0 -32
-32 -70 -94 -112 l-51 -34 -19 22 c-23 29 -61 103 -87 173 -13 35 -26 55 -36
55 -9 0 -39 -17 -67 -39 -28 -21 -58 -41 -66 -43 -26 -9 -112 45 -145 91 -31
42 -35 44 -90 47 -46 3 -62 8 -81 29 -12 14 -28 25 -34 25 -7 0 -9 23 -4 74 6
69 -1 154 -12 143 -3 -3 -11 -31 -19 -64 -8 -32 -27 -84 -43 -115 -40 -76 -48
-153 -27 -257 9 -45 15 -86 13 -92 -7 -22 -92 96 -115 159 l-22 66 25 33 c14
18 38 43 53 54 25 18 27 25 21 52 -4 18 -17 48 -28 67 -27 43 -29 125 -6 220
22 92 23 188 1 225 l-18 30 7 -62 c5 -52 3 -63 -9 -63 -17 0 -27 29 -27 82 0
21 -7 56 -16 78 -15 38 -15 42 1 60 22 25 15 35 -39 50 -35 10 -63 32 -142
112 -99 101 -153 138 -199 138 -20 0 -25 5 -25 24 0 51 76 49 157 -3 33 -21
71 -42 84 -46 36 -12 329 -316 329 -342 0 -12 8 -30 18 -40 10 -10 24 -42 30
-70 14 -62 70 -153 94 -153 12 0 19 -11 24 -35 3 -19 10 -35 14 -35 4 0 17 45
30 101 27 122 24 192 -15 299 -50 138 -68 220 -56 247 13 27 29 26 45 -3 6
-10 20 -32 32 -49 66 -97 114 -221 114 -297 0 -46 15 -78 35 -78 20 0 20 -64
-2 -140 -16 -58 -16 -60 5 -77 22 -19 62 -158 62 -219 0 -25 5 -34 21 -39 30
-10 39 9 39 85 0 101 12 105 55 20 36 -71 40 -98 21 -142 -6 -13 -2 -19 18
-24 35 -8 43 -1 55 57 16 73 14 145 -9 260 -28 147 -42 169 -115 194 -51 18
-63 26 -81 60 -13 26 -27 39 -37 37 -23 -4 -22 30 2 52 33 30 33 56 -1 88 -20
19 -29 35 -25 48 3 10 -1 24 -8 30 -7 6 -15 29 -18 52 -4 28 -22 66 -54 112
-27 39 -55 85 -62 103 -15 37 -16 37 -131 58 -120 22 -177 43 -200 72 -16 21
-25 24 -52 19 -82 -17 -100 -17 -145 -3 -26 9 -75 19 -108 22 -33 4 -71 12
-84 18 -20 10 -30 8 -70 -16 -197 -117 -297 -124 -455 -31 -38 23 -69 34 -90
32 -20 -1 -45 8 -71 25 -22 15 -45 27 -52 27 -6 0 -28 15 -47 34 -26 24 -36
42 -36 64 0 41 19 80 42 87 11 4 18 16 18 30 0 14 15 41 33 61 29 34 32 43 31
103 -1 48 -13 103 -43 201 -65 204 -104 443 -83 499 l9 24 40 -36 c22 -21 46
-37 54 -37 7 0 26 -12 41 -27 25 -23 32 -26 48 -15 11 7 22 12 26 12 3 0 5
-33 4 -73 -1 -39 -1 -78 -1 -86 1 -13 15 -12 55 4 16 7 17 5 10 -16 -8 -24 -7
-170 2 -178 2 -2 22 10 43 27 22 18 46 32 55 32 11 0 14 13 14 53 -1 69 12
157 22 157 22 0 24 -13 51 -293 11 -115 10 -132 -4 -163 -22 -46 -22 -47 16
-40 31 6 34 3 69 -54 33 -51 42 -60 75 -65 21 -3 54 -13 73 -22 19 -9 71 -19
116 -23 55 -6 97 -16 130 -33 47 -24 61 -26 225 -28 l174 -3 80 36 c44 20 136
61 204 92 68 31 143 61 168 67 41 11 46 10 72 -15 37 -36 43 -33 36 17 -6 41
-5 45 35 81 23 21 56 44 74 51 67 28 162 161 172 241 6 53 34 91 56 78 15 -10
8 -136 -13 -223 -32 -134 -52 -168 -139 -227 -41 -28 -76 -57 -78 -63 -2 -7 4
-21 13 -31 10 -11 20 -41 23 -67 2 -26 11 -57 18 -68 8 -11 14 -36 14 -56 0
-50 8 -69 31 -69 21 0 38 29 63 106 32 97 88 114 84 27 -1 -27 4 -69 12 -95
23 -79 5 -115 -114 -233 -106 -106 -150 -173 -180 -274 -21 -72 -20 -107 6
-161 12 -25 22 -63 22 -85 1 -37 4 -41 48 -62 42 -20 52 -32 84 -94 27 -54 38
-91 43 -145 6 -68 21 -114 21 -66 0 40 40 128 72 159 41 38 69 53 102 53 23 0
25 -2 16 -26 -6 -14 -10 -30 -10 -35 0 -19 33 -8 67 21 19 17 38 28 42 25 5
-2 11 -23 14 -46 5 -38 24 -65 37 -53 3 3 6 51 6 107 1 81 7 121 30 195 15 50
33 92 39 92 25 0 35 -27 36 -100 0 -41 5 -90 12 -109 16 -45 86 -89 143 -90
53 -1 85 -27 89 -69 3 -46 20 -60 37 -33 29 46 78 6 78 -65 0 -31 4 -43 11
-38 22 13 100 195 126 292 29 109 27 156 -8 320 -25 113 -44 161 -104 253 -63
98 -92 157 -125 260 -17 50 -46 115 -66 145 -45 67 -69 132 -78 206 -7 58 -26
90 -26 45 0 -74 -38 -107 -122 -107 -41 0 -40 -1 -73 85 -7 19 -8 19 -17 -5
-86 -209 -169 -348 -201 -337 -25 8 -50 59 -55 109 -6 77 22 212 59 283 17 33
42 80 55 105 32 60 58 230 50 331 -5 77 -23 135 -91 289 -54 122 -52 121 -130
82 -118 -58 -134 -46 -171 136 -3 14 -12 22 -24 22 -11 0 -34 16 -51 35 -18
19 -37 35 -44 35 -6 0 -24 -14 -40 -30 l-29 -30 -26 25 c-14 13 -43 31 -65 38
-24 8 -45 24 -51 38 -51 107 -51 159 -1 231 38 55 45 82 27 93 -15 9 -41 -11
-142 -107 -49 -46 -88 -91 -88 -100 0 -9 10 -18 23 -22 29 -7 79 -54 74 -69
-7 -22 -73 -19 -137 7 -55 23 -72 25 -149 20 -48 -3 -92 -1 -100 4 -21 15 -8
49 46 121 26 35 54 72 62 83 8 10 11 21 8 25 -10 9 -37 -17 -57 -58 -20 -39
-64 -79 -86 -79 -7 0 -35 -14 -61 -31 -41 -26 -55 -30 -95 -25 -26 3 -50 1
-52 -3 -3 -4 -34 -23 -69 -41 -63 -32 -64 -32 -91 -15 -26 17 -27 17 -53 -10
-22 -21 -34 -26 -58 -22 -17 3 -42 -1 -55 -9 -14 -7 -39 -13 -56 -14 -27 0
-32 4 -38 31 -8 41 -32 33 -28 -9 3 -27 -2 -33 -35 -50 -21 -11 -49 -22 -63
-25 -14 -4 -70 -49 -125 -100 l-98 -94 6 -49 c9 -72 26 -122 46 -142 19 -18
45 -62 39 -67 -2 -1 -14 -8 -27 -15 -28 -14 -41 -2 -41 41 0 21 -6 28 -27 32
-16 4 -35 18 -44 34 -9 15 -41 69 -71 118 -30 50 -64 114 -77 143 l-22 53 22
36 23 36 -37 31 c-30 26 -42 48 -71 136 -19 58 -46 141 -61 185 -37 111 -54
205 -56 306 -1 82 10 129 31 129 17 0 40 -44 40 -77 0 -27 5 -35 26 -43 17 -7
33 -27 49 -64 13 -30 35 -60 47 -67 13 -6 32 -20 44 -31 13 -12 32 -18 54 -16
31 3 35 -1 67 -60 27 -48 38 -60 48 -52 9 8 16 4 27 -12 25 -40 29 -59 35
-183 3 -66 6 -121 7 -122 0 -1 12 -4 26 -8 23 -5 30 1 67 59 52 81 79 89 68
20 -11 -73 15 -51 48 41 29 83 44 108 58 99 5 -3 9 -22 10 -42 l1 -37 16 35
17 35 3 -37 c2 -20 10 -42 18 -48 12 -10 14 -8 14 17 0 67 112 163 173 148 20
-5 26 -2 30 17 9 33 -9 91 -33 113 -18 16 -23 17 -46 4 -25 -13 -28 -12 -54
19 l-28 34 -50 -18 c-48 -17 -52 -17 -69 -1 -11 9 -52 24 -91 33 -98 22 -129
46 -179 134 -70 125 -73 133 -74 227 0 71 -2 84 -11 65 -8 -15 -20 -22 -41
-22 -22 0 -28 -4 -23 -16 23 -59 13 -194 -14 -194 -5 0 -16 26 -24 58 -16 57
-73 179 -89 189 -5 3 -13 1 -19 -5 -7 -7 -3 -25 11 -57 23 -52 26 -69 11 -60
-30 19 -112 234 -150 395 l-22 94 21 17 c17 14 21 28 21 79 0 46 5 68 21 90
13 17 22 46 23 72 2 41 14 69 61 142 32 48 51 41 47 -16 -2 -27 0 -48 5 -48 4
0 28 39 53 86 56 109 104 154 163 154 23 0 54 -6 69 -14 23 -12 27 -12 32 0 8
20 71 48 91 40 14 -5 16 -15 12 -46 l-5 -40 40 0 c32 0 49 -8 85 -40 25 -22
50 -40 54 -40 10 0 103 63 136 93 13 12 29 17 41 13 16 -6 20 0 26 33 7 46 38
73 72 65 12 -3 25 -1 28 5 12 19 26 12 26 -13 0 -26 -21 -56 -90 -131 -33 -36
-49 -62 -53 -90 -5 -27 -22 -59 -57 -100 -27 -33 -50 -63 -50 -67 0 -19 22 -4
78 52 66 65 92 75 92 35 0 -14 5 -25 10 -25 17 0 24 31 12 51 -16 26 -15 32 9
63 17 21 24 24 35 15 11 -9 12 -15 3 -26 -16 -18 -2 -30 19 -17 28 18 27 59
-3 78 -24 16 -25 18 -10 46 18 34 59 65 75 55 5 -3 10 -19 10 -34 0 -15 6 -36
14 -46 12 -17 16 -18 31 -5 17 14 17 13 0 -20 -27 -52 -102 -146 -141 -178
-22 -17 -42 -46 -54 -80 -20 -53 -60 -132 -82 -164 -10 -14 -9 -21 5 -36 13
-14 17 -37 17 -102 0 -82 0 -83 20 -65 19 17 21 17 40 0 20 -18 20 -17 20 30
l0 49 28 -27 c46 -44 62 -32 62 44 0 46 16 51 61 18 16 -11 33 -18 38 -15 13
9 42 127 39 161 -3 25 1 30 22 33 14 2 35 8 46 13 17 9 27 7 48 -6 23 -15 30
-16 57 -4 28 11 33 10 45 -6 8 -10 14 -27 14 -36 0 -10 5 -21 11 -25 18 -11 0
-53 -72 -166 -74 -115 -129 -221 -129 -250 0 -10 14 -24 33 -32 17 -8 47 -24
64 -36 30 -20 34 -20 39 -5 4 9 4 43 1 76 -3 32 -3 59 0 59 2 0 14 -5 25 -11
18 -10 25 -8 40 11 10 12 18 30 18 40 0 10 12 25 26 35 14 9 35 39 46 66 14
32 27 49 38 49 10 0 28 9 42 19 24 20 25 20 57 0 56 -34 59 -58 17 -142 -20
-40 -36 -78 -36 -84 0 -5 -18 -38 -40 -72 -22 -34 -44 -78 -48 -99 -5 -20 -21
-59 -35 -87 -43 -81 -36 -125 22 -125 56 0 76 9 95 41 15 25 23 29 62 29 l44
0 0 38 c0 46 11 65 34 56 21 -8 50 17 67 59 7 18 18 39 25 48 8 8 17 33 22 55
6 30 13 40 30 42 13 2 25 -3 28 -12 9 -24 24 -19 24 7 1 57 37 61 55 7 16 -47
31 -48 39 -2 3 21 15 51 27 65 17 22 24 25 40 16 17 -9 19 -17 14 -77 -9 -100
-12 -110 -54 -155 -74 -81 -196 -305 -177 -325 4 -3 26 0 49 7 88 26 95 26
102 -5 10 -45 13 -51 14 -27 1 25 28 43 65 43 19 0 30 9 42 32 21 41 113 138
130 138 23 0 17 -71 -18 -247 -28 -141 -30 -165 -19 -187 10 -18 12 -46 7
-103 -10 -115 9 -150 40 -73 9 22 22 40 29 40 19 0 25 24 25 91 0 86 26 202
65 289 18 41 41 101 50 133 9 32 27 70 40 85 l23 27 17 -40 c15 -37 17 -38 27
-20 22 40 40 56 54 44 8 -7 14 -7 19 1 10 16 23 12 30 -11 6 -19 10 -16 27 25
11 25 26 46 34 46 7 0 27 -20 45 -45 18 -25 36 -42 40 -38 3 5 26 53 49 107
62 149 116 224 142 198 4 -4 14 -31 20 -60 13 -55 28 -69 28 -27 0 33 7 32 47
-7 27 -26 35 -29 48 -18 8 7 15 20 15 29 0 9 4 22 9 30 14 21 102 -15 163 -66
27 -24 56 -43 64 -43 8 0 22 17 31 38 10 20 18 38 19 40 1 1 21 -6 46 -17 31
-13 56 -35 82 -71 21 -29 58 -77 83 -108 25 -30 60 -87 77 -126 46 -101 56
-107 108 -66 40 33 45 34 127 33 235 -3 231 -2 231 -73 l0 -50 -39 0 c-44 0
-55 -10 -46 -39 7 -22 53 -41 101 -41 24 0 34 5 39 20 4 13 15 20 31 20 22 0
24 4 24 44 0 30 -5 46 -15 50 -8 3 -15 11 -15 17 0 8 14 10 45 6 46 -7 59 0
49 28 -8 21 -60 47 -153 75 -99 32 -136 57 -136 95 l0 30 118 -2 c91 -1 117 1
117 12 0 22 -30 28 -145 30 -120 3 -149 10 -206 56 -70 55 -45 71 50 33 41
-17 48 -13 27 18 -30 42 -22 51 37 44 28 -4 87 -9 130 -13 66 -5 77 -3 77 10
0 18 -35 29 -145 47 -167 28 -299 81 -350 142 -46 55 2 80 65 33 42 -31 62
-32 75 -2 6 12 20 23 32 25 20 3 22 -1 20 -40 -2 -33 2 -43 15 -46 12 -2 19 5
24 25 12 50 32 73 65 73 33 0 95 52 84 70 -3 5 19 24 50 41 31 17 54 33 52 35
-2 2 -82 -1 -178 -7 -96 -6 -233 -9 -306 -7 -115 3 -136 6 -160 24 -32 24 -43
64 -18 64 9 0 23 -7 31 -15 15 -15 79 -20 108 -9 24 9 20 47 -14 131 -16 41
-30 81 -30 88 0 7 12 23 27 35 22 17 35 20 66 15 36 -7 38 -6 28 13 -6 10 -25
25 -43 31 -99 37 -100 38 -93 80 6 38 5 39 -38 60 -24 12 -51 19 -60 15 -27
-10 -74 23 -91 65 -9 25 -27 46 -45 55 -16 9 -31 21 -33 27 -3 9 -9 9 -26 0
-21 -11 -24 -9 -43 34 -11 25 -17 54 -14 65 4 14 2 20 -8 20 -8 0 -31 13 -51
29 -20 16 -53 32 -73 36 -21 3 -71 27 -111 52 -58 36 -85 46 -132 50 -53 5
-60 8 -74 36 -13 27 -13 35 0 58 l14 28 -34 -6 c-19 -3 -36 -1 -40 6 -4 6 -23
11 -42 11 -21 0 -37 6 -40 15 -3 8 -22 19 -42 26 -61 20 -190 87 -312 164 -63
39 -169 96 -235 126 -137 62 -214 110 -267 165 -47 50 -193 308 -202 356 -4
21 -15 42 -25 48 -33 17 -65 174 -65 320 -1 125 9 170 37 170 31 1 39 16 23
47 -14 29 -14 31 14 64 17 19 29 46 30 62 0 58 65 134 152 178 82 42 128 48
184 24z m193 -172 c101 -56 454 -273 475 -291 38 -34 48 -78 41 -181 -9 -124
-32 -177 -102 -241 -81 -74 -146 -84 -223 -34 -19 13 -65 35 -103 49 -170 63
-334 164 -379 233 -43 64 -52 115 -33 176 55 167 171 326 239 326 10 0 49 -17
85 -37z m-2698 -612 c18 -31 43 -72 56 -92 28 -43 29 -49 3 -49 -31 0 -67 42
-106 125 -55 114 -18 127 47 16z m258 -200 c16 -10 41 -77 33 -86 -8 -8 -82
66 -82 82 0 15 28 17 49 4z m2631 -716 c45 -19 96 -45 112 -57 26 -18 28 -22
14 -30 -29 -16 -112 19 -169 73 -28 26 -49 48 -45 49 3 0 43 -16 88 -35z
m-278 -197 c68 -84 248 -341 242 -347 -7 -7 -129 123 -191 204 -39 51 -103
163 -103 180 0 15 22 0 52 -37z m-2349 -85 c14 -16 38 -47 54 -70 24 -36 28
-50 25 -97 -3 -48 -7 -56 -23 -56 -18 0 -19 5 -14 58 7 54 5 59 -29 107 -48
68 -58 85 -48 85 4 0 20 -12 35 -27z m2741 -523 c49 -11 100 -27 114 -36 23
-15 24 -20 18 -75 -7 -56 -4 -65 47 -181 75 -171 75 -170 41 -166 -19 2 -35
14 -49 35 -24 39 -38 43 -25 7 15 -38 13 -44 -16 -44 -23 0 -26 -3 -22 -27 3
-16 9 -36 13 -45 11 -26 -17 -23 -43 5 -11 12 -30 47 -42 77 -34 87 -73 113
-51 33 13 -47 14 -103 2 -103 -34 0 -153 204 -196 335 -20 61 -13 142 16 179
26 32 68 34 193 6z m2391 -2208 c31 -22 135 -165 135 -185 0 -11 -38 11 -93
55 -28 21 -60 38 -74 38 -24 0 -25 3 -20 36 9 51 29 73 52 56z m-4554 -89 c9
-25 7 -30 -18 -51 -67 -55 -75 -50 -46 31 20 55 47 63 64 20z m2704 -75 c0
-74 6 -122 20 -171 15 -51 17 -72 9 -85 -18 -28 -38 -24 -58 10 l-18 33 -11
-25 c-10 -23 -12 -20 -15 30 -4 68 15 266 29 292 5 10 18 18 27 18 15 0 17
-12 17 -102z m1175 -58 c18 -10 19 -14 8 -27 -25 -31 -91 -53 -160 -53 -59 0
-68 2 -68 18 0 24 39 60 76 72 35 11 115 5 144 -10z m-2929 -12 c35 -10 39
-15 39 -44 0 -46 -21 -54 -134 -54 l-96 0 0 35 c0 53 28 75 96 75 31 0 74 -5
95 -12z m2555 -24 c19 -13 22 -20 13 -30 -16 -19 -48 -18 -71 3 -42 38 5 61
58 27z m-4028 -92 c-3 -26 -17 -74 -31 -106 -39 -84 -36 -129 10 -174 30 -31
36 -43 34 -72 -2 -31 -1 -33 12 -20 7 8 22 36 31 63 10 26 21 47 26 47 20 0
15 -45 -11 -100 -32 -68 -35 -89 -24 -172 6 -48 5 -59 -8 -64 -48 -18 -91 56
-117 200 -11 56 -24 124 -31 152 -11 47 -10 55 14 110 14 32 31 79 38 104 15
60 26 80 46 80 13 0 15 -9 11 -48z m3334 -89 c15 -14 26 -63 14 -63 -18 0 -39
17 -51 40 -21 41 2 55 37 23z m-1468 -84 c-10 -12 -55 -39 -99 -61 -44 -21
-92 -50 -106 -64 -35 -34 -81 -45 -139 -34 -53 10 -140 47 -140 60 0 5 30 11
68 15 82 8 181 33 287 73 44 17 95 31 114 31 34 1 34 1 15 -20z m2754 -62 c8
-39 -83 -101 -205 -141 -48 -16 -56 -16 -114 -1 -77 20 -182 72 -176 88 9 29
273 71 314 49 16 -9 32 -7 74 8 64 24 102 22 107 -3z m-4213 -647 c11 -36 35
-50 81 -50 37 0 46 -4 56 -24 6 -14 20 -26 32 -28 31 -4 26 -31 -9 -43 -16 -6
-50 -25 -74 -43 -25 -18 -55 -35 -68 -38 -53 -14 -109 64 -113 156 -5 90 -5
90 44 90 36 0 46 -4 51 -20z m3859 -123 c17 -13 12 -17 -55 -55 -88 -48 -157
-116 -196 -192 -26 -51 -28 -64 -28 -170 0 -140 29 -377 56 -445 40 -106 57
-346 28 -410 -12 -28 -14 -20 -20 100 -7 136 -17 194 -44 259 -12 28 -14 45
-6 66 8 23 6 32 -10 46 -10 9 -19 24 -19 33 0 9 -10 36 -21 61 l-21 45 -10
-30 c-6 -20 -5 -48 3 -82 23 -99 -3 -242 -39 -219 -6 3 -22 39 -37 79 -14 39
-35 92 -45 117 -42 101 -30 345 28 552 28 99 40 112 129 142 46 16 89 38 108
55 16 17 44 37 60 45 37 19 115 21 139 3z m-265 -1022 c35 -73 17 -253 -34
-341 -25 -43 -59 -71 -68 -57 -8 13 11 264 23 316 16 71 38 119 52 115 7 -3
19 -17 27 -33z m-2450 -95 c5 -41 -10 -230 -19 -230 -5 0 -21 11 -36 23 -25
22 -28 31 -32 111 -4 74 -2 90 14 107 26 28 68 22 73 -11z m111 -22 c11 -18
23 -47 26 -64 4 -24 10 -31 24 -27 12 3 20 -2 25 -16 4 -12 15 -21 27 -21 15
0 18 -4 13 -17 -4 -10 -11 -53 -15 -95 -5 -42 -13 -86 -20 -97 -22 -42 -67
-17 -106 59 -13 25 -19 66 -22 147 -6 161 7 198 48 131z m2005 -29 c4 -6 4
-76 0 -155 -7 -141 -8 -147 -39 -192 -17 -25 -44 -55 -59 -66 -27 -20 -29 -20
-42 -3 -7 10 -16 48 -20 84 -4 36 -13 87 -21 111 -7 25 -11 49 -8 54 3 5 30
20 59 33 50 21 53 26 60 66 10 62 50 101 70 68z m-1696 -9 c5 0 11 -20 14 -44
4 -25 18 -77 32 -117 28 -80 31 -127 14 -230 -10 -56 -15 -69 -30 -69 -23 0
-39 29 -49 89 -7 45 -8 45 -9 9 -1 -50 -10 -68 -31 -68 -42 0 -90 108 -90 201
0 68 18 143 44 181 24 36 63 61 84 53 8 -3 17 -5 21 -5z m1877 -25 c18 -44 18
-96 -1 -170 -16 -60 -57 -135 -74 -135 -9 0 -13 291 -4 323 3 11 14 17 34 17
25 0 33 -6 45 -35z m-482 -90 c58 -71 69 -106 69 -225 0 -62 -6 -121 -14 -145
-12 -35 -18 -40 -49 -43 -19 -2 -42 -10 -50 -17 -8 -7 -26 -14 -40 -14 -14 0
-41 -2 -60 -3 l-35 -3 0 80 c0 44 -6 108 -14 142 -16 69 -14 78 42 150 17 23
44 60 59 82 15 23 34 41 42 41 7 0 30 -20 50 -45z m-389 -25 c3 -11 31 -50 61
-86 67 -82 88 -145 82 -249 -3 -60 -8 -78 -31 -109 -41 -54 -97 -78 -190 -84
l-79 -5 7 91 c5 61 3 112 -5 155 -13 65 -13 65 18 118 18 30 49 84 69 121 39
70 57 82 68 48z m-683 -27 c9 -10 21 -36 28 -58 7 -22 21 -55 32 -73 18 -30
19 -44 14 -160 -9 -161 -15 -204 -29 -199 -7 2 -15 21 -18 43 -3 21 -7 29 -8
17 0 -12 -6 -34 -11 -49 -10 -25 -12 -26 -26 -12 -8 8 -19 42 -24 76 -10 73
-20 94 -31 66 -4 -10 -8 -33 -8 -51 -2 -69 -29 -84 -58 -30 -13 24 -18 63 -21
155 -5 142 7 189 66 254 38 42 70 49 94 21z m314 -55 c26 -24 67 -54 93 -68
l46 -25 3 -70 c7 -167 -29 -345 -70 -345 -27 0 -68 44 -68 74 0 19 -4 24 -16
19 -9 -3 -20 0 -24 7 -6 10 -11 3 -17 -21 -10 -38 -29 -46 -56 -26 -40 28 -49
326 -13 412 17 40 53 85 68 85 5 0 29 -19 54 -42z"/>
<path d="M4504 4073 c-9 -20 -19 -85 -24 -144 -4 -59 -10 -111 -14 -117 -3 -5
-18 -13 -33 -17 -59 -14 -68 -45 -28 -93 14 -17 25 -40 25 -53 0 -19 5 -15 20
19 10 23 24 42 30 42 13 0 13 -23 -1 -37 -8 -8 -9 -20 -1 -40 7 -22 6 -36 -4
-54 -7 -13 -13 -32 -14 -42 0 -16 2 -16 24 -2 26 17 41 8 48 -30 2 -12 12 -20
24 -21 12 -1 26 -4 31 -7 6 -4 13 32 17 95 8 107 9 103 -38 133 -8 6 -18 22
-22 37 -5 23 -2 29 20 39 14 7 26 15 26 19 0 4 -16 23 -35 43 l-36 37 7 115
c4 63 4 115 0 115 -4 0 -14 -17 -22 -37z"/>
<path d="M2190 2723 c0 -77 20 -171 43 -206 9 -13 46 -39 82 -56 l67 -32 76
32 c43 18 81 37 87 41 18 16 -18 28 -83 28 -82 0 -131 26 -132 70 -1 27 -47
116 -80 153 -48 56 -60 50 -60 -30z"/>
<path d="M3698 2634 c-115 -28 -149 -43 -167 -78 -8 -14 -23 -29 -35 -32 -30
-10 -46 -30 -46 -57 0 -29 14 -43 53 -52 22 -6 34 -2 55 18 15 14 53 33 85 42
56 16 127 65 127 87 0 6 -7 16 -16 22 -13 10 -7 14 37 24 53 12 79 27 79 43 0
15 -70 8 -172 -17z"/>
<path d="M5152 1420 c-30 -60 -56 -127 -59 -150 -7 -49 14 -155 36 -180 25
-29 53 -29 67 0 19 40 35 243 23 280 -6 16 -8 38 -4 48 9 19 6 81 -3 99 -4 6
-31 -37 -60 -97z"/>
<path d="M4370 1420 c0 -8 7 -78 15 -155 8 -77 12 -166 9 -197 -11 -98 14
-146 34 -65 25 97 21 247 -8 349 -12 41 -49 93 -50 68z"/>
<path d="M4795 1313 c20 -180 52 -253 111 -253 13 0 13 3 0 28 -8 15 -19 57
-25 95 -7 47 -20 85 -46 127 -20 33 -39 60 -41 60 -3 0 -3 -26 1 -57z"/>
<path d="M4654 1325 c-5 -16 -9 -78 -9 -136 0 -104 9 -139 38 -139 12 0 3 245
-11 280 l-10 25 -8 -30z"/>
<path d="M4176 1259 c-17 -87 6 -231 34 -214 13 8 13 185 0 219 -13 35 -26 33
-34 -5z"/>
</g>
</svg>
